<svg width="128" height="107" viewBox="0 0 128 107" fill="none" xmlns="http://www.w3.org/2000/svg">
<g filter="url(#filter0_d_2673_138)">
<path d="M70.3495 19.1561C71.8309 18.4214 73.8274 17.8329 75.562 18.8241C76.3441 19.271 76.6159 20.2673 76.169 21.0495C75.736 21.8072 74.7873 22.0859 74.0173 21.6962L73.9436 21.6565L73.896 21.6327C73.6347 21.5186 73.0051 21.4806 71.7991 22.0787C70.6116 22.6677 69.2887 23.674 68.0871 24.7964C67.1459 25.6757 66.3296 26.5791 65.762 27.3184C65.4763 27.6904 65.2747 27.9934 65.1533 28.2114C65.1156 28.2789 65.1682 28.1786 65.1533 28.2114C65.1533 28.2114 64.2878 29.7761 63.4604 29.7761C62.6373 29.7761 61.7695 28.2302 61.7695 28.2302C61.7542 28.1982 61.8063 28.2943 61.7695 28.2302C61.6444 28.0127 61.4367 27.7096 61.1419 27.337C60.5563 26.5969 59.7149 25.6923 58.7461 24.8114C57.5102 23.6875 56.1494 22.6769 54.9303 22.0844C53.6055 21.4404 52.9552 21.5256 52.7262 21.6565C51.9441 22.1034 50.9478 21.8316 50.5008 21.0495C50.0539 20.2673 50.3257 19.271 51.1078 18.8241C52.8408 17.8338 54.8568 18.4216 56.3563 19.1505C57.5644 19.7377 58.7816 20.5809 59.8889 21.4886L62.448 19.4632C63.048 18.9883 63.8974 18.9943 64.4906 19.4776L66.9302 21.4653C67.9999 20.5696 69.1762 19.7381 70.3495 19.1561ZM62.3113 23.7316C62.7257 24.1636 63.1062 24.5891 63.441 24.993C63.7678 24.5879 64.1391 24.1613 64.5435 23.7285L63.4454 22.834L62.3113 23.7316Z" fill="white"/>
<path d="M53.2972 25.2591C53.2972 24.3582 54.0275 23.6279 54.9283 23.6279C55.8292 23.6279 56.5595 24.3582 56.5595 25.2591C56.5595 28.7235 59.5217 31.6581 63.3349 31.6581C67.1481 31.6581 70.1103 28.7235 70.1103 25.2591C70.1103 24.3582 70.8406 23.6279 71.7415 23.6279C72.6423 23.6279 73.3726 24.3582 73.3726 25.2591C73.3726 30.6644 68.8073 34.9203 63.3349 34.9203C57.8625 34.9203 53.2972 30.6644 53.2972 25.2591Z" fill="white"/>
<path d="M70.4867 41.3878C70.5597 41.6619 70.654 41.9054 70.7762 42.1031C71.042 42.533 71.4395 42.7463 72.0359 42.5876C72.9064 42.3559 73.4243 41.4624 73.1926 40.5918C72.0198 36.1854 68.1543 32.8557 63.4607 32.8557C58.7672 32.8557 54.9017 36.1854 53.7289 40.5918C53.4972 41.4624 54.015 42.3559 54.8856 42.5876C55.5668 42.7689 56.1418 42.4648 56.4707 41.9068C56.5621 41.7517 56.6345 41.5771 56.6849 41.3878C56.6996 41.3328 56.7148 41.2781 56.7307 41.2237C56.8436 40.8374 56.988 40.4667 57.1602 40.1139C58.3406 37.6958 60.829 36.118 63.4607 36.118C66.1439 36.118 68.8692 37.7581 70.0682 40.2566C70.2159 40.5643 70.3404 40.885 70.4388 41.2173C70.4555 41.2738 70.4715 41.3306 70.4867 41.3878Z" fill="white"/>
<path d="M61.7038 43.1444V61.6333L54.4514 63.2328C53.704 63.3977 53.1718 64.06 53.1717 64.8254V67.1105V72.7566C53.1717 73.522 53.704 74.1845 54.4514 74.3495L58.264 75.1904L62.9835 76.2313L63.0707 76.2479C63.2748 76.2814 63.4838 76.2759 63.6863 76.2313L68.9659 75.0668L72.2183 74.3495C72.9658 74.1845 73.498 73.522 73.498 72.7566V68.0659V64.8254C73.498 64.06 72.9658 63.3977 72.2183 63.2328L64.966 61.6333V43.1444L63.3349 41.5133L61.7038 43.1444ZM56.434 71.446V66.1362L63.3349 64.6142L70.2358 66.1362V71.446L63.3349 72.968L56.434 71.446Z" fill="white"/>
<path fill-rule="evenodd" clip-rule="evenodd" d="M89.7353 26.8997C89.1547 26.8285 88.5945 26.7781 88.0527 26.7467L87.8604 30.0031C87.6416 32.4418 86.8823 34.8117 85.5894 36.6494C84.1225 38.7345 81.9579 40.1681 78.9269 40.3074C76.5294 39.3504 74.0383 37.9248 71.4905 35.9356C71.3309 35.8109 71.1713 35.6836 71.0112 35.5545C73.0486 34.7976 74.8202 33.8821 76.4482 33.0408C77.2204 32.6418 77.9604 32.2594 78.6811 31.9185C80.5657 31.0273 82.4919 30.3099 84.8682 30.0622V26.7851C81.898 27.0437 79.5165 27.9147 77.2862 28.9695C76.3827 29.3968 75.5338 29.8351 74.6977 30.2667C72.6536 31.3221 70.6859 32.3381 68.1837 33.0573C68.0672 32.9453 67.9504 32.8324 67.8338 32.7179L67.4997 32.3868L67.4387 32.329C66.7984 31.7505 65.8098 31.7697 65.1927 32.3868C64.5758 33.0039 64.5565 33.9923 65.1349 34.6326L65.1927 34.6936L65.5493 35.0465C65.9057 35.3962 66.2622 35.7359 66.6187 36.0657C67.4805 36.8629 68.3429 37.6024 69.2041 38.2867C69.5079 38.881 69.7842 39.5353 70.0682 40.2566C70.1894 40.5644 70.3121 40.8845 70.4388 41.2173C70.4744 41.3108 70.5104 41.4053 70.5467 41.5009C70.6214 41.6973 70.6977 41.898 70.7762 42.1031C70.7863 42.1294 70.7964 42.1559 70.8066 42.1824C70.9826 42.6415 71.1676 43.116 71.3667 43.5999C71.8647 44.8096 72.4511 46.0775 73.206 47.3071C75.3836 50.8542 78.8819 53.9446 85.3843 55.0961C85.4781 55.1128 85.5734 55.1211 85.6688 55.1211C86.2831 55.1211 86.9593 55.0693 87.6763 54.9698L87.2252 51.7381C86.919 49.6922 85.8777 47.3482 84.0185 44.983C86.6016 45.3029 89.0939 45.175 91.4537 44.6742C93.4921 45.4875 95.0757 47.0673 95.9204 48.5322C94.4492 49.4687 92.7569 50.2379 91.08 50.8024L92.1207 53.8941C94.4592 53.1069 96.9179 51.9366 98.9493 50.3993C99.379 50.0741 99.807 49.632 100.223 49.1204L98.3168 46.2176C97.6227 45.1931 96.7109 44.2008 95.6244 43.354C97.8223 42.4182 99.8429 41.1571 101.649 39.6617C101.302 40.5461 100.927 41.4139 100.536 42.2405C100.227 42.8967 99.9106 43.5201 99.596 44.0991L101.649 47.0689C102.271 46.0545 102.896 44.8843 103.486 43.6334C104.909 40.6205 106.192 37.0108 106.726 33.8082C106.75 33.6615 106.774 33.5327 106.796 33.4186C106.958 32.5541 106.961 32.5373 105.723 32.0256C100.942 30.0503 97.2877 28.854 94.6872 28.0701C92.2022 27.321 90.5634 26.9689 89.7353 26.8997ZM75.9859 45.6003C75.205 44.3281 74.6174 42.9725 74.074 41.5862C75.3291 42.2931 76.5783 42.8881 77.8183 43.3776C81.5087 46.3456 83.2332 49.2717 83.8178 51.3937C79.6818 50.204 77.462 48.0046 75.9859 45.6003ZM88.2576 38.5266C89.9038 36.1867 90.8127 33.3162 91.0937 30.4643C91.7679 30.6266 92.6453 30.8617 93.7457 31.1934C95.8694 31.8335 98.755 32.8125 102.492 34.2598C99.566 37.7017 95.6667 40.3355 91.1917 41.3904C89.2049 41.8587 87.0877 42.0195 84.8682 41.7952C86.2191 40.9389 87.3491 39.8179 88.2576 38.5266Z" fill="white"/>
<path d="M92.1207 53.8941L91.08 50.8024C90.7785 50.9039 90.4799 50.9979 90.1857 51.0846L91.08 54.222C91.4257 54.1205 91.7732 54.0111 92.1207 53.8941Z" fill="white"/>
<path fill-rule="evenodd" clip-rule="evenodd" d="M37.4364 26.9005C38.0169 26.8293 38.5772 26.7788 39.119 26.7475L39.3113 30.0039C39.5301 32.4426 40.2894 34.8124 41.5823 36.6502C43.0492 38.7352 45.2137 40.1688 48.2448 40.3082C50.6423 39.3511 53.1333 37.9255 55.6811 35.9363C55.8408 35.8117 56.0004 35.6844 56.1605 35.5553C54.123 34.7983 52.3515 33.8829 50.7235 33.0416C49.9513 32.6425 49.2113 32.2601 48.4906 31.9193C46.606 31.028 44.6798 30.3107 42.3035 30.0629V26.7859C45.2737 27.0445 47.6552 27.9155 49.8854 28.9702C50.7889 29.3975 51.6378 29.8358 52.4739 30.2675C54.5181 31.3229 56.4858 32.3388 58.988 33.0581C59.1045 32.9461 59.2213 32.8331 59.3379 32.7187L59.6719 32.3876L59.733 32.3298C60.3733 31.7512 61.3619 31.7705 61.979 32.3876C62.5959 33.0047 62.6152 33.9931 62.0368 34.6333L61.979 34.6944L61.6224 35.0472C61.266 35.3969 60.9095 35.7366 60.5529 36.0665C59.6911 36.8637 58.8288 37.6032 57.9676 38.2874C57.6841 38.8421 57.4245 39.4491 57.1602 40.1139C57.0198 40.4672 56.8781 40.8369 56.7307 41.2237C56.6958 41.3154 56.6606 41.408 56.625 41.5016C56.5744 41.6347 56.523 41.7697 56.4707 41.9068C56.436 41.998 56.4008 42.0901 56.3651 42.1832C56.1305 42.7952 55.8798 43.4348 55.601 44.0872C55.1477 45.1477 54.62 46.2422 53.9657 47.3079C51.7881 50.855 48.2898 53.9454 41.7874 55.0969C41.6935 55.1135 41.5983 55.1219 41.5029 55.1219C40.8885 55.1219 40.2123 55.0701 39.4954 54.9706L39.9465 51.7388C40.2527 49.693 41.294 47.349 43.1531 44.9837C40.5701 45.3036 38.0777 45.1757 35.718 44.6749C33.6796 45.4882 32.096 47.0681 31.2513 48.5329C32.7225 49.4695 34.4148 50.2387 36.0917 50.8032L35.0509 53.8949C32.7124 53.1076 30.2538 51.9374 28.2223 50.4001C27.7927 50.0749 27.3647 49.6328 26.9483 49.1212L28.8548 46.2183C29.549 45.1939 30.4607 44.2015 31.5473 43.3548C29.3493 42.419 27.3287 41.1579 25.5223 39.6625C25.87 40.5468 26.245 41.4146 26.6353 42.2412C26.9451 42.8974 27.2611 43.5209 27.5756 44.0999L25.5223 47.0697C24.901 46.0553 24.2759 44.8851 23.6853 43.6342C22.2627 40.6213 20.9798 37.0116 20.4461 33.809C20.4216 33.6623 20.3975 33.5335 20.3761 33.4194C20.2139 32.5548 20.2108 32.5381 21.4491 32.0264C26.2298 30.051 29.8839 28.8547 32.4844 28.0709C34.9695 27.3218 36.6083 26.9697 37.4364 26.9005ZM51.1857 45.601C51.9667 44.3289 52.5542 42.9732 53.0977 41.5869C51.8426 42.2938 50.5934 42.8889 49.3534 43.3783C45.663 46.3464 43.9385 49.2725 43.3538 51.3945C47.4899 50.2048 49.7097 48.0053 51.1857 45.601ZM38.9141 38.5274C37.2678 36.1874 36.359 33.317 36.078 30.4651C35.4038 30.6274 34.5263 30.8625 33.4259 31.1942C31.3023 31.8343 28.4166 32.8133 24.68 34.2606C27.6056 37.7025 31.5049 40.3363 35.98 41.3911C37.9668 41.8595 40.0839 42.0203 42.3035 41.796C40.9526 40.9397 39.8226 39.8187 38.9141 38.5274Z" fill="white"/>
<path d="M35.0509 53.8949L36.0917 50.8032C36.3932 50.9047 36.6918 50.9987 36.986 51.0853L36.0917 54.2227C35.746 54.1213 35.3985 54.0119 35.0509 53.8949Z" fill="white"/>
<path d="M93.7139 64.4372C93.4111 63.2569 92.8535 61.3574 92.2135 59.7124C91.681 58.3437 91.0915 57.1511 90.5445 56.6953C89.3904 55.7335 88.5311 55.7301 87.088 55.7244C86.6484 55.7227 86.1547 55.7208 85.582 55.6915L72.7283 47.8978C72.0423 47.4818 71.1554 47.6264 70.6372 48.239C70.119 48.8516 70.1235 49.7502 70.6475 50.3578C71.0125 50.7809 71.3468 51.1864 71.6533 51.5765C73.3471 53.7321 74.1885 55.412 74.6312 56.9474C75.1637 58.7945 75.1637 60.5551 75.1637 63.0334V63.0426C75.1637 63.9342 74.7858 65.3119 73.9855 67.0591C73.8348 67.3881 73.672 67.7242 73.498 68.0659C72.7716 69.4932 71.852 71.0186 70.8196 72.5289C70.2249 73.3988 69.6015 74.2512 68.9659 75.0668C67.1339 77.418 65.2013 79.4641 63.5665 80.7449C63.2987 80.9547 63.039 81.1439 62.7889 81.3106C62.0394 81.8104 61.8369 82.823 62.3365 83.5725C62.8363 84.3221 63.8489 84.5246 64.5984 84.0249C67.4169 82.1458 70.8329 78.2896 73.5125 74.3698C74.8676 72.3876 76.0756 70.3298 76.9515 68.4177C77.8069 66.5503 78.426 64.6515 78.426 63.0426L78.426 62.8278C78.4264 61.6156 78.4267 60.4413 78.3316 59.2669L81.464 62.8987V73.8848C81.9728 72.828 86.0275 68.1131 86.0275 64.4791C86.0275 63.1742 84.7475 61.6823 84.3302 61.2272L79.8466 56.0287L93.7139 64.4372Z" fill="white"/>
<path d="M33.4201 64.438C33.7228 63.2576 34.2805 61.3582 34.9205 59.7132C35.453 58.3445 36.0424 57.1519 36.5895 56.696C37.7436 55.7342 38.6028 55.7309 40.046 55.7252C40.4855 55.7235 40.9793 55.7215 41.552 55.6923L54.4056 47.8986C55.0917 47.4826 55.9785 47.6272 56.4967 48.2397C57.0149 48.8523 57.0105 49.7509 56.4864 50.3585C56.0691 50.8424 55.6917 51.3034 55.3504 51.7443C53.7434 53.8201 52.9339 55.4526 52.5027 56.9482C51.9702 58.7952 51.9702 60.5559 51.9702 63.0342V63.0434C51.9702 63.935 52.3481 65.3127 53.1485 67.0599C53.1562 67.0768 53.1639 67.0936 53.1717 67.1105C53.9503 68.8001 55.0474 70.6763 56.3144 72.5297C56.939 73.4433 57.5953 74.3376 58.264 75.1904C60.067 77.4895 61.9604 79.4864 63.5665 80.7449C63.8346 80.955 64.0947 81.1445 64.345 81.3114C65.0946 81.8111 65.2971 82.8238 64.7974 83.5733C64.2977 84.3228 63.285 84.5254 62.5355 84.0257C59.717 82.1465 56.3011 78.2904 53.6214 74.3705C52.2664 72.3884 51.0583 70.3306 50.1825 68.4185C49.3271 66.551 48.708 64.6523 48.708 63.0434L48.7079 62.8285C48.7076 61.6164 48.7073 60.442 48.8023 59.2677L45.6699 62.8995V73.8856C45.1611 72.8288 41.1064 68.1139 41.1064 64.4799C41.1064 63.175 42.3865 61.683 42.8037 61.2279L47.2873 56.0295L33.4201 64.438Z" fill="white"/>
<path d="M69.8607 52.3745C68.2156 53.0145 66.2743 53.6449 65.0939 53.9476L71.3667 43.5999L73.5444 40.0076C73.5151 40.5803 74.757 47.5389 74.7552 47.9785C74.7496 49.4216 73.8396 49.5513 72.8778 50.7055C72.6415 50.989 72.2073 51.284 71.6533 51.5765C71.1384 51.8483 70.5199 52.118 69.8607 52.3745Z" fill="white"/>
<path d="M56.8116 52.3745C58.4566 53.0145 60.398 53.6449 61.5783 53.9476L55.601 44.0872L53.1279 40.0076C53.1572 40.5803 51.9153 47.5389 51.917 47.9785C51.9227 49.4216 52.8327 49.5513 53.7945 50.7055C54.076 51.0434 54.6387 51.3975 55.3504 51.7443C55.7908 51.959 56.2883 52.1709 56.8116 52.3745Z" fill="white"/>
<path d="M70.7762 42.1031C70.654 41.9054 70.5597 41.6619 70.4867 41.3878C70.4715 41.3306 70.4555 41.2738 70.4388 41.2173C70.3121 40.8845 70.1894 40.5644 70.0682 40.2566C68.8692 37.7581 66.1439 36.118 63.4607 36.118C60.829 36.118 58.3406 37.6958 57.1602 40.1139C57.0198 40.4672 56.8781 40.8369 56.7307 41.2237C56.7148 41.2781 56.6996 41.3328 56.6849 41.3878C56.6345 41.5771 56.5621 41.7517 56.4707 41.9068C56.436 41.998 56.4008 42.0901 56.3651 42.1832C56.1305 42.7952 55.8798 43.4348 55.601 44.0872L61.5783 53.9476C60.398 53.6449 58.4566 53.0145 56.8116 52.3745C56.2883 52.1709 55.7908 51.959 55.3504 51.7443C53.7434 53.8201 52.9339 55.4526 52.5027 56.9482C51.9702 58.7952 51.9702 60.5559 51.9702 63.0342V63.0434C51.9702 63.935 52.3481 65.3127 53.1485 67.0599C53.1562 67.0768 53.1639 67.0936 53.1717 67.1105V64.8254C53.1718 64.06 53.704 63.3977 54.4514 63.2328L61.7038 61.6333V43.1444L63.3349 41.5133L64.966 43.1444V61.6333L72.2183 63.2328C72.9658 63.3977 73.498 64.06 73.498 64.8254V68.0659C73.672 67.7242 73.8348 67.3881 73.9855 67.0591C74.7858 65.3119 75.1637 63.9342 75.1637 63.0426V63.0334C75.1637 60.5551 75.1637 58.7945 74.6312 56.9474C74.1885 55.412 73.3471 53.7321 71.6533 51.5765C71.1384 51.8483 70.5199 52.118 69.8607 52.3745C68.2156 53.0145 66.2743 53.6449 65.0939 53.9476L71.3667 43.5999C71.1676 43.116 70.9826 42.6415 70.8066 42.1824C70.7964 42.1559 70.7863 42.1294 70.7762 42.1031Z" fill="white"/>
<path d="M62.9835 76.2313L58.264 75.1904C60.067 77.4895 61.9604 79.4864 63.5665 80.7449C65.2013 79.4641 67.1339 77.418 68.9659 75.0668L63.6863 76.2313C63.4838 76.2759 63.2748 76.2814 63.0707 76.2479L62.9835 76.2313Z" fill="white"/>
<path d="M70.3495 19.1561C71.8309 18.4214 73.8274 17.8329 75.562 18.8241C76.3441 19.271 76.6159 20.2673 76.169 21.0495C75.736 21.8072 74.7873 22.0859 74.0173 21.6962L73.9436 21.6565L73.896 21.6327C73.6347 21.5186 73.0051 21.4806 71.7991 22.0787C70.6116 22.6677 69.2887 23.674 68.0871 24.7964C67.1459 25.6757 66.3296 26.5791 65.762 27.3184C65.4763 27.6904 65.2747 27.9934 65.1533 28.2114C65.1156 28.2789 65.1682 28.1786 65.1533 28.2114C65.1533 28.2114 64.2878 29.7761 63.4604 29.7761C62.6373 29.7761 61.7695 28.2302 61.7695 28.2302C61.7542 28.1982 61.8063 28.2943 61.7695 28.2302C61.6444 28.0127 61.4367 27.7096 61.1419 27.337C60.5563 26.5969 59.7149 25.6923 58.7461 24.8114C57.5102 23.6875 56.1494 22.6769 54.9303 22.0844C53.6055 21.4404 52.9552 21.5256 52.7262 21.6565C51.9441 22.1034 50.9478 21.8316 50.5008 21.0495C50.0539 20.2673 50.3257 19.271 51.1078 18.8241C52.8408 17.8338 54.8568 18.4216 56.3563 19.1505C57.5644 19.7377 58.7816 20.5809 59.8889 21.4886L62.448 19.4632C63.048 18.9883 63.8974 18.9943 64.4906 19.4776L66.9302 21.4653C67.9999 20.5696 69.1762 19.7381 70.3495 19.1561ZM62.3113 23.7316C62.7257 24.1636 63.1062 24.5891 63.441 24.993C63.7678 24.5879 64.1391 24.1613 64.5435 23.7285L63.4454 22.834L62.3113 23.7316Z" fill="white"/>
<path d="M53.2972 25.2591C53.2972 24.3582 54.0275 23.6279 54.9283 23.6279C55.8292 23.6279 56.5595 24.3582 56.5595 25.2591C56.5595 28.7235 59.5217 31.6581 63.3349 31.6581C67.1481 31.6581 70.1103 28.7235 70.1103 25.2591C70.1103 24.3582 70.8406 23.6279 71.7415 23.6279C72.6423 23.6279 73.3726 24.3582 73.3726 25.2591C73.3726 30.6644 68.8073 34.9203 63.3349 34.9203C57.8625 34.9203 53.2972 30.6644 53.2972 25.2591Z" fill="white"/>
<path d="M70.4867 41.3878C70.7184 42.2583 71.1654 42.8193 72.0359 42.5876C72.9064 42.3559 73.4243 41.4624 73.1926 40.5918C72.0198 36.1854 68.1543 32.8557 63.4607 32.8557C58.7672 32.8557 54.9017 36.1854 53.7289 40.5918C53.4972 41.4624 54.015 42.3559 54.8856 42.5876C55.7561 42.8193 56.4532 42.2583 56.6849 41.3878C57.5162 38.2648 60.391 36.118 63.4607 36.118C66.5305 36.118 69.6555 38.2648 70.4867 41.3878Z" fill="white"/>
<path d="M61.7038 43.1444V61.6333L54.4514 63.2328C53.704 63.3977 53.1718 64.06 53.1717 64.8254V72.7566C53.1717 73.522 53.704 74.1845 54.4514 74.3495L62.9835 76.2313L63.0707 76.2479C63.2748 76.2814 63.4838 76.2759 63.6863 76.2313L72.2183 74.3495C72.9658 74.1845 73.498 73.522 73.498 72.7566V64.8254C73.498 64.06 72.9658 63.3977 72.2183 63.2328L64.966 61.6333V43.1444L63.3349 41.5133L61.7038 43.1444ZM56.434 71.446V66.1362L63.3349 64.6142L70.2358 66.1362V71.446L63.3349 72.968L56.434 71.446Z" fill="white"/>
<path fill-rule="evenodd" clip-rule="evenodd" d="M89.7353 26.8997C89.1547 26.8285 88.5945 26.7781 88.0527 26.7467L87.8604 30.0031C87.6416 32.4418 86.8823 34.8117 85.5894 36.6494C84.1225 38.7345 81.9579 40.1681 78.9269 40.3074C76.5294 39.3504 74.0383 37.9248 71.4905 35.9356C71.3309 35.8109 71.1713 35.6836 71.0112 35.5545C73.0486 34.7976 74.8202 33.8821 76.4482 33.0408C77.2204 32.6418 77.9604 32.2594 78.6811 31.9185C80.5657 31.0273 82.4919 30.3099 84.8682 30.0622V26.7851C81.898 27.0437 79.5165 27.9147 77.2862 28.9695C76.3827 29.3968 75.5338 29.8351 74.6977 30.2667C72.6536 31.3221 70.6859 32.3381 68.1837 33.0573C68.0672 32.9453 67.9504 32.8324 67.8338 32.7179L67.4997 32.3868L67.4387 32.329C66.7984 31.7505 65.8098 31.7697 65.1927 32.3868C64.5758 33.0039 64.5565 33.9923 65.1349 34.6326L65.1927 34.6936L65.5493 35.0465C65.9057 35.3962 66.2622 35.7359 66.6187 36.0657C67.4805 36.8629 68.3429 37.6024 69.2041 38.2867C69.674 39.206 70.0782 40.2689 70.5467 41.5009C70.631 41.7225 70.7174 41.9496 70.8066 42.1824C71.4225 43.7893 72.1492 45.5857 73.206 47.3071C75.3836 50.8542 78.8819 53.9446 85.3843 55.0961C85.4781 55.1128 85.5734 55.1211 85.6688 55.1211C86.2831 55.1211 86.9593 55.0693 87.6763 54.9698L87.2252 51.7381C86.919 49.6922 85.8777 47.3482 84.0185 44.983C86.6016 45.3029 89.0939 45.175 91.4537 44.6742C93.4921 45.4875 95.0757 47.0673 95.9204 48.5322C94.4492 49.4687 92.7569 50.2379 91.08 50.8024L92.1207 53.8941C94.4592 53.1069 96.9179 51.9366 98.9493 50.3993C99.379 50.0741 99.807 49.632 100.223 49.1204L98.3168 46.2176C97.6227 45.1931 96.7109 44.2008 95.6244 43.354C97.8223 42.4182 99.8429 41.1571 101.649 39.6617C101.302 40.5461 100.927 41.4139 100.536 42.2405C100.227 42.8967 99.9106 43.5201 99.596 44.0991L101.649 47.0689C102.271 46.0545 102.896 44.8843 103.486 43.6334C104.909 40.6205 106.192 37.0108 106.726 33.8082C106.75 33.6615 106.774 33.5327 106.796 33.4186C106.958 32.5541 106.961 32.5373 105.723 32.0256C100.942 30.0503 97.2877 28.854 94.6872 28.0701C92.2022 27.321 90.5634 26.9689 89.7353 26.8997ZM75.9859 45.6003C75.205 44.3281 74.6174 42.9725 74.074 41.5862C75.3291 42.2931 76.5783 42.8881 77.8183 43.3776C81.5087 46.3456 83.2332 49.2717 83.8178 51.3937C79.6818 50.204 77.462 48.0046 75.9859 45.6003ZM88.2576 38.5266C89.9038 36.1867 90.8127 33.3162 91.0937 30.4643C91.7679 30.6266 92.6453 30.8617 93.7457 31.1934C95.8694 31.8335 98.755 32.8125 102.492 34.2598C99.566 37.7017 95.6667 40.3355 91.1917 41.3904C89.2049 41.8587 87.0877 42.0195 84.8682 41.7952C86.2191 40.9389 87.3491 39.8179 88.2576 38.5266Z" fill="white"/>
<path d="M92.1207 53.8941L91.08 50.8024C90.7785 50.9039 90.4799 50.9979 90.1857 51.0846L91.08 54.222C91.4257 54.1205 91.7732 54.0111 92.1207 53.8941Z" fill="white"/>
<path fill-rule="evenodd" clip-rule="evenodd" d="M37.4364 26.9005C38.0169 26.8293 38.5772 26.7788 39.119 26.7475L39.3113 30.0039C39.5301 32.4426 40.2894 34.8124 41.5823 36.6502C43.0492 38.7352 45.2137 40.1688 48.2448 40.3082C50.6423 39.3511 53.1333 37.9255 55.6811 35.9363C55.8408 35.8117 56.0004 35.6844 56.1605 35.5553C54.123 34.7983 52.3515 33.8829 50.7235 33.0416C49.9513 32.6425 49.2113 32.2601 48.4906 31.9193C46.606 31.028 44.6798 30.3107 42.3035 30.0629V26.7859C45.2737 27.0445 47.6552 27.9155 49.8854 28.9702C50.7889 29.3975 51.6378 29.8358 52.4739 30.2675C54.5181 31.3229 56.4858 32.3388 58.988 33.0581C59.1045 32.9461 59.2213 32.8331 59.3379 32.7187L59.6719 32.3876L59.733 32.3298C60.3733 31.7512 61.3619 31.7705 61.979 32.3876C62.5959 33.0047 62.6152 33.9931 62.0368 34.6333L61.979 34.6944L61.6224 35.0472C61.266 35.3969 60.9095 35.7366 60.5529 36.0665C59.6911 36.8637 58.8288 37.6032 57.9676 38.2874C57.4977 39.2068 57.0935 40.2697 56.625 41.5016C56.5407 41.7233 56.4543 41.9504 56.3651 42.1832C55.7492 43.7901 55.0225 45.5865 53.9657 47.3079C51.7881 50.855 48.2898 53.9454 41.7874 55.0969C41.6935 55.1135 41.5983 55.1219 41.5029 55.1219C40.8885 55.1219 40.2123 55.0701 39.4954 54.9706L39.9465 51.7388C40.2527 49.693 41.294 47.349 43.1531 44.9837C40.5701 45.3036 38.0777 45.1757 35.718 44.6749C33.6796 45.4882 32.096 47.0681 31.2513 48.5329C32.7225 49.4695 34.4148 50.2387 36.0917 50.8032L35.0509 53.8949C32.7124 53.1076 30.2538 51.9374 28.2223 50.4001C27.7927 50.0749 27.3647 49.6328 26.9483 49.1212L28.8548 46.2183C29.549 45.1939 30.4607 44.2015 31.5473 43.3548C29.3493 42.419 27.3287 41.1579 25.5223 39.6625C25.87 40.5468 26.245 41.4146 26.6353 42.2412C26.9451 42.8974 27.2611 43.5209 27.5756 44.0999L25.5223 47.0697C24.901 46.0553 24.2759 44.8851 23.6853 43.6342C22.2627 40.6213 20.9798 37.0116 20.4461 33.809C20.4216 33.6623 20.3975 33.5335 20.3761 33.4194C20.2139 32.5548 20.2108 32.5381 21.4491 32.0264C26.2298 30.051 29.8839 28.8547 32.4844 28.0709C34.9695 27.3218 36.6083 26.9697 37.4364 26.9005ZM51.1857 45.601C51.9667 44.3289 52.5542 42.9732 53.0977 41.5869C51.8426 42.2938 50.5934 42.8889 49.3534 43.3783C45.663 46.3464 43.9385 49.2725 43.3538 51.3945C47.4899 50.2048 49.7097 48.0053 51.1857 45.601ZM38.9141 38.5274C37.2678 36.1874 36.359 33.317 36.078 30.4651C35.4038 30.6274 34.5263 30.8625 33.4259 31.1942C31.3023 31.8343 28.4166 32.8133 24.68 34.2606C27.6056 37.7025 31.5049 40.3363 35.98 41.3911C37.9668 41.8595 40.0839 42.0203 42.3035 41.796C40.9526 40.9397 39.8226 39.8187 38.9141 38.5274Z" fill="white"/>
<path d="M35.0509 53.8949L36.0917 50.8032C36.3932 50.9047 36.6918 50.9987 36.986 51.0853L36.0917 54.2227C35.746 54.1213 35.3985 54.0119 35.0509 53.8949Z" fill="white"/>
<path d="M93.7139 64.4372C93.4111 63.2569 92.8535 61.3574 92.2135 59.7124C91.681 58.3437 91.0915 57.1511 90.5445 56.6953C89.3904 55.7335 88.5311 55.7301 87.088 55.7244C86.6484 55.7227 86.1547 55.7208 85.582 55.6915L72.7283 47.8978C72.0423 47.4818 71.1554 47.6264 70.6372 48.239C70.119 48.8516 70.1235 49.7502 70.6475 50.3578C73.0296 53.1196 74.1084 55.1342 74.6312 56.9474C75.1637 58.7945 75.1637 60.5551 75.1637 63.0334V63.0426C75.1637 63.9342 74.7858 65.3119 73.9855 67.0591C73.2056 68.7618 72.0992 70.657 70.8196 72.5289C68.2298 76.3172 65.0951 79.7731 62.7889 81.3106C62.0394 81.8104 61.8369 82.823 62.3365 83.5725C62.8363 84.3221 63.8489 84.5246 64.5984 84.0249C67.4169 82.1458 70.8329 78.2896 73.5125 74.3698C74.8676 72.3876 76.0756 70.3298 76.9515 68.4177C77.8069 66.5503 78.426 64.6515 78.426 63.0426L78.426 62.8278C78.4264 61.6156 78.4267 60.4413 78.3316 59.2669L81.464 62.8987V73.8848C81.9728 72.828 86.0275 68.1131 86.0275 64.4791C86.0275 63.1742 84.7475 61.6823 84.3302 61.2272L79.8466 56.0287L93.7139 64.4372Z" fill="white"/>
<path d="M33.4201 64.438C33.7228 63.2576 34.2805 61.3582 34.9205 59.7132C35.453 58.3445 36.0424 57.1519 36.5895 56.696C37.7436 55.7342 38.6028 55.7309 40.046 55.7252C40.4855 55.7235 40.9793 55.7215 41.552 55.6923L54.4056 47.8986C55.0917 47.4826 55.9785 47.6272 56.4967 48.2397C57.0149 48.8523 57.0105 49.7509 56.4864 50.3585C54.1044 53.1204 53.0255 55.1349 52.5027 56.9482C51.9702 58.7952 51.9702 60.5559 51.9702 63.0342V63.0434C51.9702 63.935 52.3481 65.3127 53.1485 67.0599C53.9284 68.7626 55.0347 70.6578 56.3144 72.5297C58.9042 76.3179 62.0389 79.7738 64.345 81.3114C65.0946 81.8111 65.2971 82.8238 64.7974 83.5733C64.2977 84.3228 63.285 84.5254 62.5355 84.0257C59.717 82.1465 56.3011 78.2904 53.6214 74.3705C52.2664 72.3884 51.0583 70.3306 50.1825 68.4185C49.3271 66.551 48.708 64.6523 48.708 63.0434L48.7079 62.8285C48.7076 61.6164 48.7073 60.442 48.8023 59.2677L45.6699 62.8995V73.8856C45.1611 72.8288 41.1064 68.1139 41.1064 64.4799C41.1064 63.175 42.3865 61.683 42.8037 61.2279L47.2873 56.0295L33.4201 64.438Z" fill="white"/>
<path d="M69.8607 52.3745C68.2156 53.0145 66.2743 53.6449 65.0939 53.9476L73.5444 40.0076C73.5151 40.5803 74.757 47.5389 74.7552 47.9785C74.7496 49.4216 73.8396 49.5513 72.8778 50.7055C72.422 51.2525 71.2294 51.842 69.8607 52.3745Z" fill="white"/>
<path d="M56.8116 52.3745C58.4566 53.0145 60.398 53.6449 61.5783 53.9476L53.1279 40.0076C53.1572 40.5803 51.9153 47.5389 51.917 47.9785C51.9227 49.4216 52.8327 49.5513 53.7945 50.7055C54.2503 51.2525 55.4429 51.842 56.8116 52.3745Z" fill="white"/>
</g>
<path d="M70.3495 19.1561C71.8309 18.4214 73.8274 17.8329 75.562 18.8241C76.3441 19.271 76.6159 20.2673 76.169 21.0495C75.736 21.8072 74.7873 22.0859 74.0173 21.6962L73.9436 21.6565L73.896 21.6327C73.6347 21.5186 73.0051 21.4806 71.7991 22.0787C70.6116 22.6677 69.2887 23.674 68.0871 24.7964C67.1459 25.6757 66.3296 26.5791 65.762 27.3184C65.4763 27.6904 65.2747 27.9934 65.1533 28.2114C65.1156 28.2789 65.1682 28.1786 65.1533 28.2114C65.1533 28.2114 64.2878 29.7761 63.4604 29.7761C62.6373 29.7761 61.7695 28.2302 61.7695 28.2302C61.7542 28.1982 61.8063 28.2943 61.7695 28.2302C61.6444 28.0127 61.4367 27.7096 61.1419 27.337C60.5563 26.5969 59.7149 25.6923 58.7461 24.8114C57.5102 23.6875 56.1494 22.6769 54.9303 22.0844C53.6055 21.4404 52.9552 21.5256 52.7262 21.6565C51.9441 22.1034 50.9478 21.8316 50.5008 21.0495C50.0539 20.2673 50.3257 19.271 51.1078 18.8241C52.8408 17.8338 54.8568 18.4216 56.3563 19.1505C57.5644 19.7377 58.7816 20.5809 59.8889 21.4886L62.448 19.4632C63.048 18.9883 63.8974 18.9943 64.4906 19.4776L66.9302 21.4653C67.9999 20.5696 69.1762 19.7381 70.3495 19.1561ZM62.3113 23.7316C62.7257 24.1636 63.1062 24.5891 63.441 24.993C63.7678 24.5879 64.1391 24.1613 64.5435 23.7285L63.4454 22.834L62.3113 23.7316Z" fill="#DA5B00"/>
<path d="M53.2972 25.2591C53.2972 24.3582 54.0275 23.6279 54.9283 23.6279C55.8292 23.6279 56.5595 24.3582 56.5595 25.2591C56.5595 28.7235 59.5217 31.6581 63.3349 31.6581C67.1481 31.6581 70.1103 28.7235 70.1103 25.2591C70.1103 24.3582 70.8406 23.6279 71.7415 23.6279C72.6423 23.6279 73.3726 24.3582 73.3726 25.2591C73.3726 30.6644 68.8073 34.9203 63.3349 34.9203C57.8625 34.9203 53.2972 30.6644 53.2972 25.2591Z" fill="#DA5B00"/>
<path d="M70.4867 41.3878C70.5597 41.6619 70.654 41.9054 70.7762 42.1031C71.042 42.533 71.4395 42.7463 72.0359 42.5876C72.9064 42.3559 73.4243 41.4624 73.1926 40.5918C72.0198 36.1854 68.1543 32.8557 63.4607 32.8557C58.7672 32.8557 54.9017 36.1854 53.7289 40.5918C53.4972 41.4624 54.015 42.3559 54.8856 42.5876C55.5668 42.7689 56.1418 42.4648 56.4707 41.9068C56.5621 41.7517 56.6345 41.5771 56.6849 41.3878C56.6996 41.3328 56.7148 41.2781 56.7307 41.2237C56.8436 40.8374 56.988 40.4667 57.1602 40.1139C58.3406 37.6958 60.829 36.118 63.4607 36.118C66.1439 36.118 68.8692 37.7581 70.0682 40.2566C70.2159 40.5643 70.3404 40.885 70.4388 41.2173C70.4555 41.2738 70.4715 41.3306 70.4867 41.3878Z" fill="#DA5B00"/>
<path d="M61.7038 43.1444V61.6333L54.4514 63.2328C53.704 63.3977 53.1718 64.06 53.1717 64.8254V67.1105V72.7566C53.1717 73.522 53.704 74.1845 54.4514 74.3495L58.264 75.1904L62.9835 76.2313L63.0707 76.2479C63.2748 76.2814 63.4838 76.2759 63.6863 76.2313L68.9659 75.0668L72.2183 74.3495C72.9658 74.1845 73.498 73.522 73.498 72.7566V68.0659V64.8254C73.498 64.06 72.9658 63.3977 72.2183 63.2328L64.966 61.6333V43.1444L63.3349 41.5133L61.7038 43.1444ZM56.434 71.446V66.1362L63.3349 64.6142L70.2358 66.1362V71.446L63.3349 72.968L56.434 71.446Z" fill="#DA5B00"/>
<path fill-rule="evenodd" clip-rule="evenodd" d="M89.7353 26.8997C89.1547 26.8285 88.5945 26.7781 88.0527 26.7467L87.8604 30.0031C87.6416 32.4418 86.8823 34.8117 85.5894 36.6494C84.1225 38.7345 81.9579 40.1681 78.9269 40.3074C76.5294 39.3504 74.0383 37.9248 71.4905 35.9356C71.3309 35.8109 71.1713 35.6836 71.0112 35.5545C73.0486 34.7976 74.8202 33.8821 76.4482 33.0408C77.2204 32.6418 77.9604 32.2594 78.6811 31.9185C80.5657 31.0273 82.4919 30.3099 84.8682 30.0622V26.7851C81.898 27.0437 79.5165 27.9147 77.2862 28.9695C76.3827 29.3968 75.5338 29.8351 74.6977 30.2667C72.6536 31.3221 70.6859 32.3381 68.1837 33.0573C68.0672 32.9453 67.9504 32.8324 67.8338 32.7179L67.4997 32.3868L67.4387 32.329C66.7984 31.7505 65.8098 31.7697 65.1927 32.3868C64.5758 33.0039 64.5565 33.9923 65.1349 34.6326L65.1927 34.6936L65.5493 35.0465C65.9057 35.3962 66.2622 35.7359 66.6187 36.0657C67.4805 36.8629 68.3429 37.6024 69.2041 38.2867C69.5079 38.881 69.7842 39.5353 70.0682 40.2566C70.1894 40.5644 70.3121 40.8845 70.4388 41.2173C70.4744 41.3108 70.5104 41.4053 70.5467 41.5009C70.6214 41.6973 70.6977 41.898 70.7762 42.1031C70.7863 42.1294 70.7964 42.1559 70.8066 42.1824C70.9826 42.6415 71.1676 43.116 71.3667 43.5999C71.8647 44.8096 72.4511 46.0775 73.206 47.3071C75.3836 50.8542 78.8819 53.9446 85.3843 55.0961C85.4781 55.1128 85.5734 55.1211 85.6688 55.1211C86.2831 55.1211 86.9593 55.0693 87.6763 54.9698L87.2252 51.7381C86.919 49.6922 85.8777 47.3482 84.0185 44.983C86.6016 45.3029 89.0939 45.175 91.4537 44.6742C93.4921 45.4875 95.0757 47.0673 95.9204 48.5322C94.4492 49.4687 92.7569 50.2379 91.08 50.8024L92.1207 53.8941C94.4592 53.1069 96.9179 51.9366 98.9493 50.3993C99.379 50.0741 99.807 49.632 100.223 49.1204L98.3168 46.2176C97.6227 45.1931 96.7109 44.2008 95.6244 43.354C97.8223 42.4182 99.8429 41.1571 101.649 39.6617C101.302 40.5461 100.927 41.4139 100.536 42.2405C100.227 42.8967 99.9106 43.5201 99.596 44.0991L101.649 47.0689C102.271 46.0545 102.896 44.8843 103.486 43.6334C104.909 40.6205 106.192 37.0108 106.726 33.8082C106.75 33.6615 106.774 33.5327 106.796 33.4186C106.958 32.5541 106.961 32.5373 105.723 32.0256C100.942 30.0503 97.2877 28.854 94.6872 28.0701C92.2022 27.321 90.5634 26.9689 89.7353 26.8997ZM75.9859 45.6003C75.205 44.3281 74.6174 42.9725 74.074 41.5862C75.3291 42.2931 76.5783 42.8881 77.8183 43.3776C81.5087 46.3456 83.2332 49.2717 83.8178 51.3937C79.6818 50.204 77.462 48.0046 75.9859 45.6003ZM88.2576 38.5266C89.9038 36.1867 90.8127 33.3162 91.0937 30.4643C91.7679 30.6266 92.6453 30.8617 93.7457 31.1934C95.8694 31.8335 98.755 32.8125 102.492 34.2598C99.566 37.7017 95.6667 40.3355 91.1917 41.3904C89.2049 41.8587 87.0877 42.0195 84.8682 41.7952C86.2191 40.9389 87.3491 39.8179 88.2576 38.5266Z" fill="#DA5B00"/>
<path d="M92.1207 53.8941L91.08 50.8024C90.7785 50.9039 90.4799 50.9979 90.1857 51.0846L91.08 54.222C91.4257 54.1205 91.7732 54.0111 92.1207 53.8941Z" fill="#DA5B00"/>
<path fill-rule="evenodd" clip-rule="evenodd" d="M37.4364 26.9005C38.0169 26.8293 38.5772 26.7788 39.119 26.7475L39.3113 30.0039C39.5301 32.4426 40.2894 34.8124 41.5823 36.6502C43.0492 38.7352 45.2137 40.1688 48.2448 40.3082C50.6423 39.3511 53.1333 37.9255 55.6811 35.9363C55.8408 35.8117 56.0004 35.6844 56.1605 35.5553C54.123 34.7983 52.3515 33.8829 50.7235 33.0416C49.9513 32.6425 49.2113 32.2601 48.4906 31.9193C46.606 31.028 44.6798 30.3107 42.3035 30.0629V26.7859C45.2737 27.0445 47.6552 27.9155 49.8854 28.9702C50.7889 29.3975 51.6378 29.8358 52.4739 30.2675C54.5181 31.3229 56.4858 32.3388 58.988 33.0581C59.1045 32.9461 59.2213 32.8331 59.3379 32.7187L59.6719 32.3876L59.733 32.3298C60.3733 31.7512 61.3619 31.7705 61.979 32.3876C62.5959 33.0047 62.6152 33.9931 62.0368 34.6333L61.979 34.6944L61.6224 35.0472C61.266 35.3969 60.9095 35.7366 60.5529 36.0665C59.6911 36.8637 58.8288 37.6032 57.9676 38.2874C57.6841 38.8421 57.4245 39.4491 57.1602 40.1139C57.0198 40.4672 56.8781 40.8369 56.7307 41.2237C56.6958 41.3154 56.6606 41.408 56.625 41.5016C56.5744 41.6347 56.523 41.7697 56.4707 41.9068C56.436 41.998 56.4008 42.0901 56.3651 42.1832C56.1305 42.7952 55.8798 43.4348 55.601 44.0872C55.1477 45.1477 54.62 46.2422 53.9657 47.3079C51.7881 50.855 48.2898 53.9454 41.7874 55.0969C41.6935 55.1135 41.5983 55.1219 41.5029 55.1219C40.8885 55.1219 40.2123 55.0701 39.4954 54.9706L39.9465 51.7388C40.2527 49.693 41.294 47.349 43.1531 44.9837C40.5701 45.3036 38.0777 45.1757 35.718 44.6749C33.6796 45.4882 32.096 47.0681 31.2513 48.5329C32.7225 49.4695 34.4148 50.2387 36.0917 50.8032L35.0509 53.8949C32.7124 53.1076 30.2538 51.9374 28.2223 50.4001C27.7927 50.0749 27.3647 49.6328 26.9483 49.1212L28.8548 46.2183C29.549 45.1939 30.4607 44.2015 31.5473 43.3548C29.3493 42.419 27.3287 41.1579 25.5223 39.6625C25.87 40.5468 26.245 41.4146 26.6353 42.2412C26.9451 42.8974 27.2611 43.5209 27.5756 44.0999L25.5223 47.0697C24.901 46.0553 24.2759 44.8851 23.6853 43.6342C22.2627 40.6213 20.9798 37.0116 20.4461 33.809C20.4216 33.6623 20.3975 33.5335 20.3761 33.4194C20.2139 32.5548 20.2108 32.5381 21.4491 32.0264C26.2298 30.051 29.8839 28.8547 32.4844 28.0709C34.9695 27.3218 36.6083 26.9697 37.4364 26.9005ZM51.1857 45.601C51.9667 44.3289 52.5542 42.9732 53.0977 41.5869C51.8426 42.2938 50.5934 42.8889 49.3534 43.3783C45.663 46.3464 43.9385 49.2725 43.3538 51.3945C47.4899 50.2048 49.7097 48.0053 51.1857 45.601ZM38.9141 38.5274C37.2678 36.1874 36.359 33.317 36.078 30.4651C35.4038 30.6274 34.5263 30.8625 33.4259 31.1942C31.3023 31.8343 28.4166 32.8133 24.68 34.2606C27.6056 37.7025 31.5049 40.3363 35.98 41.3911C37.9668 41.8595 40.0839 42.0203 42.3035 41.796C40.9526 40.9397 39.8226 39.8187 38.9141 38.5274Z" fill="#DA5B00"/>
<path d="M35.0509 53.8949L36.0917 50.8032C36.3932 50.9047 36.6918 50.9987 36.986 51.0853L36.0917 54.2227C35.746 54.1213 35.3985 54.0119 35.0509 53.8949Z" fill="#DA5B00"/>
<path d="M93.7139 64.4372C93.4111 63.2569 92.8535 61.3574 92.2135 59.7124C91.681 58.3437 91.0915 57.1511 90.5445 56.6953C89.3904 55.7335 88.5311 55.7301 87.088 55.7244C86.6484 55.7227 86.1547 55.7208 85.582 55.6915L72.7283 47.8978C72.0423 47.4818 71.1554 47.6264 70.6372 48.239C70.119 48.8516 70.1235 49.7502 70.6475 50.3578C71.0125 50.7809 71.3468 51.1864 71.6533 51.5765C73.3471 53.7321 74.1885 55.412 74.6312 56.9474C75.1637 58.7945 75.1637 60.5551 75.1637 63.0334V63.0426C75.1637 63.9342 74.7858 65.3119 73.9855 67.0591C73.8348 67.3881 73.672 67.7242 73.498 68.0659C72.7716 69.4932 71.852 71.0186 70.8196 72.5289C70.2249 73.3988 69.6015 74.2512 68.9659 75.0668C67.1339 77.418 65.2013 79.4641 63.5665 80.7449C63.2987 80.9547 63.039 81.1439 62.7889 81.3106C62.0394 81.8104 61.8369 82.823 62.3365 83.5725C62.8363 84.3221 63.8489 84.5246 64.5984 84.0249C67.4169 82.1458 70.8329 78.2896 73.5125 74.3698C74.8676 72.3876 76.0756 70.3298 76.9515 68.4177C77.8069 66.5503 78.426 64.6515 78.426 63.0426L78.426 62.8278C78.4264 61.6156 78.4267 60.4413 78.3316 59.2669L81.464 62.8987V73.8848C81.9728 72.828 86.0275 68.1131 86.0275 64.4791C86.0275 63.1742 84.7475 61.6823 84.3302 61.2272L79.8466 56.0287L93.7139 64.4372Z" fill="#DA5B00"/>
<path d="M33.4201 64.438C33.7228 63.2576 34.2805 61.3582 34.9205 59.7132C35.453 58.3445 36.0424 57.1519 36.5895 56.696C37.7436 55.7342 38.6028 55.7309 40.046 55.7252C40.4855 55.7235 40.9793 55.7215 41.552 55.6923L54.4056 47.8986C55.0917 47.4826 55.9785 47.6272 56.4967 48.2397C57.0149 48.8523 57.0105 49.7509 56.4864 50.3585C56.0691 50.8424 55.6917 51.3034 55.3504 51.7443C53.7434 53.8201 52.9339 55.4526 52.5027 56.9482C51.9702 58.7952 51.9702 60.5559 51.9702 63.0342V63.0434C51.9702 63.935 52.3481 65.3127 53.1485 67.0599C53.1562 67.0768 53.1639 67.0936 53.1717 67.1105C53.9503 68.8001 55.0474 70.6763 56.3144 72.5297C56.939 73.4433 57.5953 74.3376 58.264 75.1904C60.067 77.4895 61.9604 79.4864 63.5665 80.7449C63.8346 80.955 64.0947 81.1445 64.345 81.3114C65.0946 81.8111 65.2971 82.8238 64.7974 83.5733C64.2977 84.3228 63.285 84.5254 62.5355 84.0257C59.717 82.1465 56.3011 78.2904 53.6214 74.3705C52.2664 72.3884 51.0583 70.3306 50.1825 68.4185C49.3271 66.551 48.708 64.6523 48.708 63.0434L48.7079 62.8285C48.7076 61.6164 48.7073 60.442 48.8023 59.2677L45.6699 62.8995V73.8856C45.1611 72.8288 41.1064 68.1139 41.1064 64.4799C41.1064 63.175 42.3865 61.683 42.8037 61.2279L47.2873 56.0295L33.4201 64.438Z" fill="#DA5B00"/>
<path d="M69.8607 52.3745C68.2156 53.0145 66.2743 53.6449 65.0939 53.9476L71.3667 43.5999L73.5444 40.0076C73.5151 40.5803 74.757 47.5389 74.7552 47.9785C74.7496 49.4216 73.8396 49.5513 72.8778 50.7055C72.6415 50.989 72.2073 51.284 71.6533 51.5765C71.1384 51.8483 70.5199 52.118 69.8607 52.3745Z" fill="#DA5B00"/>
<path d="M56.8116 52.3745C58.4566 53.0145 60.398 53.6449 61.5783 53.9476L55.601 44.0872L53.1279 40.0076C53.1572 40.5803 51.9153 47.5389 51.917 47.9785C51.9227 49.4216 52.8327 49.5513 53.7945 50.7055C54.076 51.0434 54.6387 51.3975 55.3504 51.7443C55.7908 51.959 56.2883 52.1709 56.8116 52.3745Z" fill="#DA5B00"/>
<path d="M70.7762 42.1031C70.654 41.9054 70.5597 41.6619 70.4867 41.3878C70.4715 41.3306 70.4555 41.2738 70.4388 41.2173C70.3121 40.8845 70.1894 40.5644 70.0682 40.2566C68.8692 37.7581 66.1439 36.118 63.4607 36.118C60.829 36.118 58.3406 37.6958 57.1602 40.1139C57.0198 40.4672 56.8781 40.8369 56.7307 41.2237C56.7148 41.2781 56.6996 41.3328 56.6849 41.3878C56.6345 41.5771 56.5621 41.7517 56.4707 41.9068C56.436 41.998 56.4008 42.0901 56.3651 42.1832C56.1305 42.7952 55.8798 43.4348 55.601 44.0872L61.5783 53.9476C60.398 53.6449 58.4566 53.0145 56.8116 52.3745C56.2883 52.1709 55.7908 51.959 55.3504 51.7443C53.7434 53.8201 52.9339 55.4526 52.5027 56.9482C51.9702 58.7952 51.9702 60.5559 51.9702 63.0342V63.0434C51.9702 63.935 52.3481 65.3127 53.1485 67.0599C53.1562 67.0768 53.1639 67.0936 53.1717 67.1105V64.8254C53.1718 64.06 53.704 63.3977 54.4514 63.2328L61.7038 61.6333V43.1444L63.3349 41.5133L64.966 43.1444V61.6333L72.2183 63.2328C72.9658 63.3977 73.498 64.06 73.498 64.8254V68.0659C73.672 67.7242 73.8348 67.3881 73.9855 67.0591C74.7858 65.3119 75.1637 63.9342 75.1637 63.0426V63.0334C75.1637 60.5551 75.1637 58.7945 74.6312 56.9474C74.1885 55.412 73.3471 53.7321 71.6533 51.5765C71.1384 51.8483 70.5199 52.118 69.8607 52.3745C68.2156 53.0145 66.2743 53.6449 65.0939 53.9476L71.3667 43.5999C71.1676 43.116 70.9826 42.6415 70.8066 42.1824C70.7964 42.1559 70.7863 42.1294 70.7762 42.1031Z" fill="#DA5B00"/>
<path d="M62.9835 76.2313L58.264 75.1904C60.067 77.4895 61.9604 79.4864 63.5665 80.7449C65.2013 79.4641 67.1339 77.418 68.9659 75.0668L63.6863 76.2313C63.4838 76.2759 63.2748 76.2814 63.0707 76.2479L62.9835 76.2313Z" fill="#DA5B00"/>
<path d="M70.3495 19.1561C71.8309 18.4214 73.8274 17.8329 75.562 18.8241C76.3441 19.271 76.6159 20.2673 76.169 21.0495C75.736 21.8072 74.7873 22.0859 74.0173 21.6962L73.9436 21.6565L73.896 21.6327C73.6347 21.5186 73.0051 21.4806 71.7991 22.0787C70.6116 22.6677 69.2887 23.674 68.0871 24.7964C67.1459 25.6757 66.3296 26.5791 65.762 27.3184C65.4763 27.6904 65.2747 27.9934 65.1533 28.2114C65.1156 28.2789 65.1682 28.1786 65.1533 28.2114C65.1533 28.2114 64.2878 29.7761 63.4604 29.7761C62.6373 29.7761 61.7695 28.2302 61.7695 28.2302C61.7542 28.1982 61.8063 28.2943 61.7695 28.2302C61.6444 28.0127 61.4367 27.7096 61.1419 27.337C60.5563 26.5969 59.7149 25.6923 58.7461 24.8114C57.5102 23.6875 56.1494 22.6769 54.9303 22.0844C53.6055 21.4404 52.9552 21.5256 52.7262 21.6565C51.9441 22.1034 50.9478 21.8316 50.5008 21.0495C50.0539 20.2673 50.3257 19.271 51.1078 18.8241C52.8408 17.8338 54.8568 18.4216 56.3563 19.1505C57.5644 19.7377 58.7816 20.5809 59.8889 21.4886L62.448 19.4632C63.048 18.9883 63.8974 18.9943 64.4906 19.4776L66.9302 21.4653C67.9999 20.5696 69.1762 19.7381 70.3495 19.1561ZM62.3113 23.7316C62.7257 24.1636 63.1062 24.5891 63.441 24.993C63.7678 24.5879 64.1391 24.1613 64.5435 23.7285L63.4454 22.834L62.3113 23.7316Z" fill="#FFB200"/>
<path d="M53.2972 25.2591C53.2972 24.3582 54.0275 23.6279 54.9283 23.6279C55.8292 23.6279 56.5595 24.3582 56.5595 25.2591C56.5595 28.7235 59.5217 31.6581 63.3349 31.6581C67.1481 31.6581 70.1103 28.7235 70.1103 25.2591C70.1103 24.3582 70.8406 23.6279 71.7415 23.6279C72.6423 23.6279 73.3726 24.3582 73.3726 25.2591C73.3726 30.6644 68.8073 34.9203 63.3349 34.9203C57.8625 34.9203 53.2972 30.6644 53.2972 25.2591Z" fill="#FFB200"/>
<path d="M70.4867 41.3878C70.7184 42.2583 71.1654 42.8193 72.0359 42.5876C72.9064 42.3559 73.4243 41.4624 73.1926 40.5918C72.0198 36.1854 68.1543 32.8557 63.4607 32.8557C58.7672 32.8557 54.9017 36.1854 53.7289 40.5918C53.4972 41.4624 54.015 42.3559 54.8856 42.5876C55.7561 42.8193 56.4532 42.2583 56.6849 41.3878C57.5162 38.2648 60.391 36.118 63.4607 36.118C66.5305 36.118 69.6555 38.2648 70.4867 41.3878Z" fill="#FFB200"/>
<path d="M61.7038 43.1444V61.6333L54.4514 63.2328C53.704 63.3977 53.1718 64.06 53.1717 64.8254V72.7566C53.1717 73.522 53.704 74.1845 54.4514 74.3495L62.9835 76.2313L63.0707 76.2479C63.2748 76.2814 63.4838 76.2759 63.6863 76.2313L72.2183 74.3495C72.9658 74.1845 73.498 73.522 73.498 72.7566V64.8254C73.498 64.06 72.9658 63.3977 72.2183 63.2328L64.966 61.6333V43.1444L63.3349 41.5133L61.7038 43.1444ZM56.434 71.446V66.1362L63.3349 64.6142L70.2358 66.1362V71.446L63.3349 72.968L56.434 71.446Z" fill="#FFB200"/>
<path fill-rule="evenodd" clip-rule="evenodd" d="M89.7353 26.8997C89.1547 26.8285 88.5945 26.7781 88.0527 26.7467L87.8604 30.0031C87.6416 32.4418 86.8823 34.8117 85.5894 36.6494C84.1225 38.7345 81.9579 40.1681 78.9269 40.3074C76.5294 39.3504 74.0383 37.9248 71.4905 35.9356C71.3309 35.8109 71.1713 35.6836 71.0112 35.5545C73.0486 34.7976 74.8202 33.8821 76.4482 33.0408C77.2204 32.6418 77.9604 32.2594 78.6811 31.9185C80.5657 31.0273 82.4919 30.3099 84.8682 30.0622V26.7851C81.898 27.0437 79.5165 27.9147 77.2862 28.9695C76.3827 29.3968 75.5338 29.8351 74.6977 30.2667C72.6536 31.3221 70.6859 32.3381 68.1837 33.0573C68.0672 32.9453 67.9504 32.8324 67.8338 32.7179L67.4997 32.3868L67.4387 32.329C66.7984 31.7505 65.8098 31.7697 65.1927 32.3868C64.5758 33.0039 64.5565 33.9923 65.1349 34.6326L65.1927 34.6936L65.5493 35.0465C65.9057 35.3962 66.2622 35.7359 66.6187 36.0657C67.4805 36.8629 68.3429 37.6024 69.2041 38.2867C69.674 39.206 70.0782 40.2689 70.5467 41.5009C70.631 41.7225 70.7174 41.9496 70.8066 42.1824C71.4225 43.7893 72.1492 45.5857 73.206 47.3071C75.3836 50.8542 78.8819 53.9446 85.3843 55.0961C85.4781 55.1128 85.5734 55.1211 85.6688 55.1211C86.2831 55.1211 86.9593 55.0693 87.6763 54.9698L87.2252 51.7381C86.919 49.6922 85.8777 47.3482 84.0185 44.983C86.6016 45.3029 89.0939 45.175 91.4537 44.6742C93.4921 45.4875 95.0757 47.0673 95.9204 48.5322C94.4492 49.4687 92.7569 50.2379 91.08 50.8024L92.1207 53.8941C94.4592 53.1069 96.9179 51.9366 98.9493 50.3993C99.379 50.0741 99.807 49.632 100.223 49.1204L98.3168 46.2176C97.6227 45.1931 96.7109 44.2008 95.6244 43.354C97.8223 42.4182 99.8429 41.1571 101.649 39.6617C101.302 40.5461 100.927 41.4139 100.536 42.2405C100.227 42.8967 99.9106 43.5201 99.596 44.0991L101.649 47.0689C102.271 46.0545 102.896 44.8843 103.486 43.6334C104.909 40.6205 106.192 37.0108 106.726 33.8082C106.75 33.6615 106.774 33.5327 106.796 33.4186C106.958 32.5541 106.961 32.5373 105.723 32.0256C100.942 30.0503 97.2877 28.854 94.6872 28.0701C92.2022 27.321 90.5634 26.9689 89.7353 26.8997ZM75.9859 45.6003C75.205 44.3281 74.6174 42.9725 74.074 41.5862C75.3291 42.2931 76.5783 42.8881 77.8183 43.3776C81.5087 46.3456 83.2332 49.2717 83.8178 51.3937C79.6818 50.204 77.462 48.0046 75.9859 45.6003ZM88.2576 38.5266C89.9038 36.1867 90.8127 33.3162 91.0937 30.4643C91.7679 30.6266 92.6453 30.8617 93.7457 31.1934C95.8694 31.8335 98.755 32.8125 102.492 34.2598C99.566 37.7017 95.6667 40.3355 91.1917 41.3904C89.2049 41.8587 87.0877 42.0195 84.8682 41.7952C86.2191 40.9389 87.3491 39.8179 88.2576 38.5266Z" fill="#FFB200"/>
<path d="M92.1207 53.8941L91.08 50.8024C90.7785 50.9039 90.4799 50.9979 90.1857 51.0846L91.08 54.222C91.4257 54.1205 91.7732 54.0111 92.1207 53.8941Z" fill="#FFB200"/>
<path fill-rule="evenodd" clip-rule="evenodd" d="M37.4364 26.9005C38.0169 26.8293 38.5772 26.7788 39.119 26.7475L39.3113 30.0039C39.5301 32.4426 40.2894 34.8124 41.5823 36.6502C43.0492 38.7352 45.2137 40.1688 48.2448 40.3082C50.6423 39.3511 53.1333 37.9255 55.6811 35.9363C55.8408 35.8117 56.0004 35.6844 56.1605 35.5553C54.123 34.7983 52.3515 33.8829 50.7235 33.0416C49.9513 32.6425 49.2113 32.2601 48.4906 31.9193C46.606 31.028 44.6798 30.3107 42.3035 30.0629V26.7859C45.2737 27.0445 47.6552 27.9155 49.8854 28.9702C50.7889 29.3975 51.6378 29.8358 52.4739 30.2675C54.5181 31.3229 56.4858 32.3388 58.988 33.0581C59.1045 32.9461 59.2213 32.8331 59.3379 32.7187L59.6719 32.3876L59.733 32.3298C60.3733 31.7512 61.3619 31.7705 61.979 32.3876C62.5959 33.0047 62.6152 33.9931 62.0368 34.6333L61.979 34.6944L61.6224 35.0472C61.266 35.3969 60.9095 35.7366 60.5529 36.0665C59.6911 36.8637 58.8288 37.6032 57.9676 38.2874C57.4977 39.2068 57.0935 40.2697 56.625 41.5016C56.5407 41.7233 56.4543 41.9504 56.3651 42.1832C55.7492 43.7901 55.0225 45.5865 53.9657 47.3079C51.7881 50.855 48.2898 53.9454 41.7874 55.0969C41.6935 55.1135 41.5983 55.1219 41.5029 55.1219C40.8885 55.1219 40.2123 55.0701 39.4954 54.9706L39.9465 51.7388C40.2527 49.693 41.294 47.349 43.1531 44.9837C40.5701 45.3036 38.0777 45.1757 35.718 44.6749C33.6796 45.4882 32.096 47.0681 31.2513 48.5329C32.7225 49.4695 34.4148 50.2387 36.0917 50.8032L35.0509 53.8949C32.7124 53.1076 30.2538 51.9374 28.2223 50.4001C27.7927 50.0749 27.3647 49.6328 26.9483 49.1212L28.8548 46.2183C29.549 45.1939 30.4607 44.2015 31.5473 43.3548C29.3493 42.419 27.3287 41.1579 25.5223 39.6625C25.87 40.5468 26.245 41.4146 26.6353 42.2412C26.9451 42.8974 27.2611 43.5209 27.5756 44.0999L25.5223 47.0697C24.901 46.0553 24.2759 44.8851 23.6853 43.6342C22.2627 40.6213 20.9798 37.0116 20.4461 33.809C20.4216 33.6623 20.3975 33.5335 20.3761 33.4194C20.2139 32.5548 20.2108 32.5381 21.4491 32.0264C26.2298 30.051 29.8839 28.8547 32.4844 28.0709C34.9695 27.3218 36.6083 26.9697 37.4364 26.9005ZM51.1857 45.601C51.9667 44.3289 52.5542 42.9732 53.0977 41.5869C51.8426 42.2938 50.5934 42.8889 49.3534 43.3783C45.663 46.3464 43.9385 49.2725 43.3538 51.3945C47.4899 50.2048 49.7097 48.0053 51.1857 45.601ZM38.9141 38.5274C37.2678 36.1874 36.359 33.317 36.078 30.4651C35.4038 30.6274 34.5263 30.8625 33.4259 31.1942C31.3023 31.8343 28.4166 32.8133 24.68 34.2606C27.6056 37.7025 31.5049 40.3363 35.98 41.3911C37.9668 41.8595 40.0839 42.0203 42.3035 41.796C40.9526 40.9397 39.8226 39.8187 38.9141 38.5274Z" fill="#FFB200"/>
<path d="M35.0509 53.8949L36.0917 50.8032C36.3932 50.9047 36.6918 50.9987 36.986 51.0853L36.0917 54.2227C35.746 54.1213 35.3985 54.0119 35.0509 53.8949Z" fill="#FFB200"/>
<path d="M93.7139 64.4372C93.4111 63.2569 92.8535 61.3574 92.2135 59.7124C91.681 58.3437 91.0915 57.1511 90.5445 56.6953C89.3904 55.7335 88.5311 55.7301 87.088 55.7244C86.6484 55.7227 86.1547 55.7208 85.582 55.6915L72.7283 47.8978C72.0423 47.4818 71.1554 47.6264 70.6372 48.239C70.119 48.8516 70.1235 49.7502 70.6475 50.3578C73.0296 53.1196 74.1084 55.1342 74.6312 56.9474C75.1637 58.7945 75.1637 60.5551 75.1637 63.0334V63.0426C75.1637 63.9342 74.7858 65.3119 73.9855 67.0591C73.2056 68.7618 72.0992 70.657 70.8196 72.5289C68.2298 76.3172 65.0951 79.7731 62.7889 81.3106C62.0394 81.8104 61.8369 82.823 62.3365 83.5725C62.8363 84.3221 63.8489 84.5246 64.5984 84.0249C67.4169 82.1458 70.8329 78.2896 73.5125 74.3698C74.8676 72.3876 76.0756 70.3298 76.9515 68.4177C77.8069 66.5503 78.426 64.6515 78.426 63.0426L78.426 62.8278C78.4264 61.6156 78.4267 60.4413 78.3316 59.2669L81.464 62.8987V73.8848C81.9728 72.828 86.0275 68.1131 86.0275 64.4791C86.0275 63.1742 84.7475 61.6823 84.3302 61.2272L79.8466 56.0287L93.7139 64.4372Z" fill="#FFB200"/>
<path d="M33.4201 64.438C33.7228 63.2576 34.2805 61.3582 34.9205 59.7132C35.453 58.3445 36.0424 57.1519 36.5895 56.696C37.7436 55.7342 38.6028 55.7309 40.046 55.7252C40.4855 55.7235 40.9793 55.7215 41.552 55.6923L54.4056 47.8986C55.0917 47.4826 55.9785 47.6272 56.4967 48.2397C57.0149 48.8523 57.0105 49.7509 56.4864 50.3585C54.1044 53.1204 53.0255 55.1349 52.5027 56.9482C51.9702 58.7952 51.9702 60.5559 51.9702 63.0342V63.0434C51.9702 63.935 52.3481 65.3127 53.1485 67.0599C53.9284 68.7626 55.0347 70.6578 56.3144 72.5297C58.9042 76.3179 62.0389 79.7738 64.345 81.3114C65.0946 81.8111 65.2971 82.8238 64.7974 83.5733C64.2977 84.3228 63.285 84.5254 62.5355 84.0257C59.717 82.1465 56.3011 78.2904 53.6214 74.3705C52.2664 72.3884 51.0583 70.3306 50.1825 68.4185C49.3271 66.551 48.708 64.6523 48.708 63.0434L48.7079 62.8285C48.7076 61.6164 48.7073 60.442 48.8023 59.2677L45.6699 62.8995V73.8856C45.1611 72.8288 41.1064 68.1139 41.1064 64.4799C41.1064 63.175 42.3865 61.683 42.8037 61.2279L47.2873 56.0295L33.4201 64.438Z" fill="#FFB200"/>
<path d="M69.8607 52.3745C68.2156 53.0145 66.2743 53.6449 65.0939 53.9476L73.5444 40.0076C73.5151 40.5803 74.757 47.5389 74.7552 47.9785C74.7496 49.4216 73.8396 49.5513 72.8778 50.7055C72.422 51.2525 71.2294 51.842 69.8607 52.3745Z" fill="#FFB200"/>
<path d="M56.8116 52.3745C58.4566 53.0145 60.398 53.6449 61.5783 53.9476L53.1279 40.0076C53.1572 40.5803 51.9153 47.5389 51.917 47.9785C51.9227 49.4216 52.8327 49.5513 53.7945 50.7055C54.2503 51.2525 55.4429 51.842 56.8116 52.3745Z" fill="#FFB200"/>
<defs>
<filter id="filter0_d_2673_138" x="0.000782013" y="-0.00019455" width="127.17" height="106.6" filterUnits="userSpaceOnUse" color-interpolation-filters="sRGB">
<feFlood flood-opacity="0" result="BackgroundImageFix"/>
<feColorMatrix in="SourceAlpha" type="matrix" values="0 0 0 0 0 0 0 0 0 0 0 0 0 0 0 0 0 0 127 0" result="hardAlpha"/>
<feOffset dy="2"/>
<feGaussianBlur stdDeviation="10.15"/>
<feComposite in2="hardAlpha" operator="out"/>
<feColorMatrix type="matrix" values="0 0 0 0 0 0 0 0 0 0 0 0 0 0 0 0 0 0 0.15 0"/>
<feBlend mode="normal" in2="BackgroundImageFix" result="effect1_dropShadow_2673_138"/>
<feBlend mode="normal" in="SourceGraphic" in2="effect1_dropShadow_2673_138" result="shape"/>
</filter>
</defs>
</svg>
